<svg width="21" height="20" viewBox="0 0 21 20" fill="none" xmlns="http://www.w3.org/2000/svg">
<path fill-rule="evenodd" clip-rule="evenodd" d="M3.4028 9.62212C4.5188 10.0051 5.4078 10.9391 5.7798 12.1231L5.8198 12.2431C6.2458 13.4991 6.0728 14.8511 5.3588 15.8651C5.2288 16.0491 5.2578 16.2691 5.3948 16.3731L7.4668 17.9471C7.5398 18.0021 7.6108 18.0021 7.6548 17.9971C7.7048 17.9891 7.7778 17.9621 7.8368 17.8781L8.0678 17.5501C8.7568 16.5731 9.8668 15.9701 11.0388 15.9361C12.3548 15.9091 13.5368 16.5121 14.2728 17.5751L14.3908 17.7461C14.4498 17.8301 14.5218 17.8581 14.5728 17.8661C14.6168 17.8751 14.6888 17.8721 14.7608 17.8161L16.8218 16.2611C16.9658 16.1531 16.9978 15.9221 16.8908 15.7671L16.6308 15.3921C15.9608 14.4241 15.7618 13.1681 16.0988 12.0331C16.4648 10.7971 17.3958 9.81912 18.5908 9.41912L18.7918 9.35112C18.9528 9.29812 19.0398 9.09812 18.9828 8.91412L18.1958 6.39312C18.1588 6.27512 18.0828 6.22212 18.0408 6.20012C17.9808 6.16912 17.9158 6.16412 17.8538 6.18512L17.5138 6.29812C16.3508 6.68512 15.0678 6.47512 14.0828 5.73412L13.9748 5.65312C13.0388 4.94912 12.4818 3.81412 12.4858 2.61812L12.4878 2.33812C12.4878 2.20512 12.4248 2.12212 12.3868 2.08412C12.3508 2.04712 12.2898 2.00312 12.2038 2.00312L9.6568 2.00012C9.5008 2.00012 9.3738 2.14912 9.3728 2.33312L9.3718 2.57512C9.3668 3.79012 8.7978 4.94612 7.8498 5.66912L7.7208 5.76712C6.6778 6.56012 5.3178 6.78412 4.0858 6.36412C4.0388 6.34812 3.9948 6.35112 3.9528 6.37312C3.9208 6.38912 3.8628 6.43012 3.8348 6.52112L3.0178 9.11712C2.9588 9.30612 3.0558 9.50312 3.2388 9.56612L3.4028 9.62212ZM7.6138 20.0001C7.1278 20.0001 6.6558 19.8421 6.2578 19.5391L4.1858 17.9661C3.1958 17.2161 2.9768 15.7731 3.6968 14.7501C4.0708 14.2201 4.1478 13.5391 3.9278 12.8931L3.8728 12.7251C3.6898 12.1431 3.2718 11.6911 2.7548 11.5141H2.7538L2.5908 11.4571C1.3728 11.0401 0.722799 9.74912 1.1098 8.51712L1.9258 5.92212C2.1108 5.33512 2.5098 4.86112 3.0498 4.58812C3.5778 4.32212 4.1748 4.28112 4.7328 4.47212C5.3318 4.67612 5.9968 4.56512 6.5098 4.17512L6.6388 4.07712C7.0948 3.72912 7.3698 3.16412 7.3718 2.56712L7.3728 2.32612C7.3778 1.04212 8.4028 0.00012207 9.6558 0.00012207H9.6598L12.2068 0.00312207C12.8088 0.00412207 13.3768 0.242122 13.8048 0.673122C14.2478 1.11812 14.4898 1.71312 14.4878 2.34812L14.4858 2.62712C14.4838 3.19312 14.7428 3.72812 15.1798 4.05612L15.2868 4.13712C15.7458 4.48212 16.3438 4.58112 16.8808 4.40112L17.2198 4.28812C17.7968 4.09612 18.4108 4.14312 18.9518 4.42012C19.5068 4.70412 19.9168 5.19312 20.1048 5.79812L20.8918 8.31912C21.2718 9.53712 20.6138 10.8511 19.4268 11.2481L19.2258 11.3151C18.6498 11.5091 18.1968 11.9891 18.0158 12.6011C17.8498 13.1621 17.9458 13.7791 18.2748 14.2531L18.5348 14.6281C19.2488 15.6601 19.0208 17.1081 18.0268 17.8571L15.9658 19.4131C15.4708 19.7871 14.8638 19.9381 14.2548 19.8411C13.6408 19.7421 13.1048 19.4021 12.7458 18.8841L12.6278 18.7121C12.2778 18.2081 11.7178 17.9021 11.1308 17.9351C10.5428 17.9511 10.0348 18.2301 9.7028 18.7021L9.4718 19.0301C9.1098 19.5431 8.5728 19.8781 7.9618 19.9741C7.8448 19.9921 7.7288 20.0001 7.6138 20.0001ZM11 8.50002C10.173 8.50002 9.5 9.17302 9.5 10C9.5 10.827 10.173 11.5 11 11.5C11.827 11.5 12.5 10.827 12.5 10C12.5 9.17302 11.827 8.50002 11 8.50002ZM11 13.5C9.07 13.5 7.5 11.93 7.5 10C7.5 8.07002 9.07 6.50002 11 6.50002C12.93 6.50002 14.5 8.07002 14.5 10C14.5 11.93 12.93 13.5 11 13.5Z" fill="#616061"/>
</svg>
