<svg width="18" height="12" viewBox="0 0 18 12" fill="none" xmlns="http://www.w3.org/2000/svg">
<path fill-rule="evenodd" clip-rule="evenodd" d="M17.9922 0.962878C17.9902 0.890878 17.9692 0.822878 17.9502 0.753878C17.9352 0.695878 17.9282 0.636878 17.9032 0.583878C17.8802 0.531878 17.8412 0.489878 17.8072 0.441878C17.7652 0.380878 17.7272 0.319878 17.6732 0.269878C17.6642 0.260878 17.6602 0.248878 17.6502 0.240878C17.6142 0.209878 17.5702 0.198878 17.5312 0.173878C17.4712 0.134878 17.4122 0.0948779 17.3442 0.0688779C17.2772 0.0448779 17.2112 0.0388779 17.1422 0.0288779C17.0942 0.0218779 17.0512 -0.00012207 17.0002 -0.00012207H12.0002C11.4472 -0.00012207 11.0002 0.447878 11.0002 0.999878C11.0002 1.55188 11.4472 1.99988 12.0002 1.99988H14.8262L10.7902 6.70788L6.5142 4.14288C6.0912 3.88688 5.5472 3.98088 5.2312 4.35988L0.231202 10.3599C-0.121798 10.7839 -0.0647983 11.4149 0.359202 11.7679C0.547202 11.9239 0.773202 11.9999 0.999202 11.9999C1.2862 11.9999 1.5702 11.8779 1.7682 11.6399L6.2202 6.29788L10.4852 8.85788C10.9042 9.10888 11.4422 9.02088 11.7592 8.65088L16.0002 3.70288V5.99988C16.0002 6.55188 16.4472 6.99988 17.0002 6.99988C17.5532 6.99988 18.0002 6.55188 18.0002 5.99988V0.999878C18.0002 0.986878 17.9932 0.975878 17.9922 0.962878Z" fill="#616061"/>
</svg>
