<svg width="18" height="18" viewBox="0 0 18 18" fill="none" xmlns="http://www.w3.org/2000/svg">
<path fill-rule="evenodd" clip-rule="evenodd" d="M14.7603 12.54L9.0003 15.847L3.2403 12.54L4.9343 11.819L8.5023 13.867C8.6563 13.956 8.8283 14 9.0003 14C9.1723 14 9.3433 13.956 9.4983 13.867L13.0663 11.818L14.7603 12.54ZM8.5023 9.86701C8.6563 9.95601 8.8283 10 9.0003 10C9.1723 10 9.3433 9.95601 9.4983 9.86701L13.0663 7.81801L14.7603 8.54001L9.0003 11.847L3.2403 8.54001L4.9343 7.81801L8.5023 9.86701ZM9.0003 2.08701L14.7603 4.54001L9.0003 7.84701L3.2403 4.54001L9.0003 2.08701ZM17.9983 8.34801C17.9753 7.96901 17.7403 7.63601 17.3913 7.48701L15.2393 6.57101L17.4983 5.27401C17.8273 5.08601 18.0203 4.72701 17.9983 4.34801C17.9753 3.97001 17.7403 3.63601 17.3913 3.48701L9.3913 0.0800059C9.1413 -0.0269941 8.8583 -0.0269941 8.6083 0.0800059L0.608298 3.48701C0.259298 3.63601 0.0242985 3.97001 0.0022985 4.34801C-0.0207015 4.72701 0.173298 5.08601 0.502298 5.27401L2.7603 6.57101L0.608298 7.48701C0.259298 7.63601 0.0242985 7.96901 0.0022985 8.34801C-0.0207015 8.72701 0.173298 9.08601 0.502298 9.27401L2.7603 10.571L0.608298 11.487C0.259298 11.636 0.0242985 11.969 0.0022985 12.348C-0.0207015 12.727 0.173298 13.086 0.502298 13.274L8.5023 17.867C8.6563 17.956 8.8283 18 9.0003 18C9.1723 18 9.3433 17.956 9.4983 17.867L17.4983 13.274C17.8273 13.086 18.0203 12.727 17.9983 12.348C17.9753 11.97 17.7403 11.636 17.3923 11.487L15.2403 10.57L17.4983 9.27401C17.8273 9.08601 18.0203 8.72701 17.9983 8.34801Z" fill="#616061"/>
</svg>
