<svg width="20" height="20" viewBox="0 0 20 20" fill="none" xmlns="http://www.w3.org/2000/svg">
<path fill-rule="evenodd" clip-rule="evenodd" d="M18.997 8.97409H19C19.551 8.97409 19.999 9.42009 20 9.97109C20.008 12.6421 18.975 15.1571 17.091 17.0511C15.208 18.9451 12.7 19.9921 10.029 20.0001H10C7.339 20.0001 4.836 18.9681 2.949 17.0911C1.055 15.2081 0.00800034 12.7001 3.43931e-07 10.0291C-0.00799966 7.35709 1.025 4.84309 2.909 2.94909C4.792 1.05509 7.3 0.00809155 9.971 9.15527e-05C10.766 0.0120916 11.576 0.0920915 12.352 0.278092C12.888 0.408092 13.219 0.948092 13.089 1.48509C12.96 2.02109 12.417 2.35109 11.883 2.22309C11.262 2.07309 10.603 2.01009 9.977 2.00009C7.84 2.00609 5.833 2.84409 4.327 4.35909C2.82 5.87409 1.994 7.88609 2 10.0231C2.006 12.1601 2.844 14.1661 4.359 15.6731C5.869 17.1741 7.871 18.0001 10 18.0001H10.023C12.16 17.9941 14.167 17.1561 15.673 15.6411C17.18 14.1251 18.006 12.1141 18 9.97709C17.999 9.42509 18.445 8.97509 18.997 8.97409ZM6.293 9.29299C6.684 8.90199 7.316 8.90199 7.707 9.29299L9.951 11.537L16.248 4.34099C16.612 3.92799 17.243 3.88399 17.659 4.24799C18.074 4.61099 18.116 5.24299 17.752 5.65899L10.752 13.659C10.57 13.867 10.31 13.99 10.033 14H10C9.735 14 9.481 13.895 9.293 13.707L6.293 10.707C5.902 10.316 5.902 9.68399 6.293 9.29299Z" fill="#616061"/>
</svg>
